<?xml version="1.0" encoding="iso-8859-1"?>
<!-- Generator: Adobe Illustrator 19.0.0, SVG Export Plug-In . SVG Version: 6.00 Build 0)  -->
<svg version="1.1" id="Layer_1" xmlns="http://www.w3.org/2000/svg" xmlns:xlink="http://www.w3.org/1999/xlink" x="0px" y="0px"
	 viewBox="0 0 512 512" style="enable-background:new 0 0 512 512;" xml:space="preserve">
<path style="fill:#2D2D2D;" d="M154.543,11.375H512l0,0v246.401c0,22.348-18.116,40.464-40.464,40.464H114.079l0,0V51.84
	C114.079,29.491,132.195,11.375,154.543,11.375L154.543,11.375z"/>
<g>
	<rect x="114.08" y="57.511" style="fill:#FFFFFF;" width="397.919" height="57.324"/>
	<path style="fill:#FFFFFF;" d="M386.496,441.929l-342.803,53.64L6.718,259.304c-3.367-21.431,11.278-41.533,32.709-44.9
		c0.009-0.002,0.019-0.003,0.027-0.005l342.802-53.6l36.944,236.249C422.555,418.472,407.917,438.561,386.496,441.929z"/>
</g>
<rect x="173.692" y="61.422" transform="matrix(-0.1546 -0.988 0.988 -0.1546 -23.617 500.5623)" style="fill:#E21B1B;" width="57.326" height="397.928"/>
<path style="fill:#999999;" d="M377.368,169.432L413.6,400.985c2.415,15.528-8.196,30.081-23.721,32.528l-341.298,53.4
	L12.349,255.368c-2.428-15.53,8.191-30.089,23.721-32.52l341.306-53.409 M387.376,155.727L34.214,210.984
	c-22.079,3.455-37.177,24.155-33.721,46.234c0,0.002,0.001,0.004,0.001,0.007l38.088,243.402l353.162-55.264
	c22.077-3.456,37.174-24.154,33.721-46.232l-38.096-243.409L387.376,155.727z"/>
<g>
</g>
<g>
</g>
<g>
</g>
<g>
</g>
<g>
</g>
<g>
</g>
<g>
</g>
<g>
</g>
<g>
</g>
<g>
</g>
<g>
</g>
<g>
</g>
<g>
</g>
<g>
</g>
<g>
</g>
</svg>
