<?xml version="1.0" standalone="no"?>
<svg id="Logo" width="40" height="41" viewBox="0 0 40 41" fill="none" xmlns="http://www.w3.org/2000/svg" style="max-width: 100%; max-height: 100%;">
<path opacity="0.2" d="M20 40.8462C31.0457 40.8462 40 31.8919 40 20.8462C40 9.8005 31.0457 0.846191 20 0.846191C8.9543 0.846191 0 9.8005 0 20.8462C0 31.8919 8.9543 40.8462 20 40.8462Z" fill="#017F04" stroke-dasharray="0,0,0,125.68138122558594"><animate attributeType="XML" attributeName="stroke-dasharray" repeatCount="1" dur="2.5s" values="0,0,0,125.68138122558594; 
          0,62.84069061279297,62.84069061279297,0; 
          125.68138122558594,0,0,0" keyTimes="0; 0.5; 1" fill="freeze"></animate></path>
<path d="M21.7017 23.9584L20.6199 20.6538L21.9716 18.8555L21.3367 16.9128L21.2949 16.8815L19.9644 18.6516L18.1479 13.1029L14.5834 15.4177L16.9505 22.6612L15.9038 24.0538L16.5593 26.0559L17.6053 24.6644L19.0003 28.9334L28.4868 22.7728L27.6238 20.1125L21.7017 23.9584Z" fill="#017F04" stroke-dasharray="0,0,0,58.99652099609375"><animate attributeType="XML" attributeName="stroke-dasharray" repeatCount="1" dur="2.5s" values="0,0,0,58.99652099609375; 
          0,29.498260498046875,29.498260498046875,0; 
          58.99652099609375,0,0,0" keyTimes="0; 0.5; 1" fill="freeze"></animate></path>
<path fill-rule="evenodd" clip-rule="evenodd" d="M20 34.6924C27.647 34.6924 33.8462 28.4932 33.8462 20.8462C33.8462 13.1992 27.647 7.00006 20 7.00006C12.353 7.00006 6.15387 13.1992 6.15387 20.8462C6.15387 28.4932 12.353 34.6924 20 34.6924Z" stroke="#017F04" stroke-dasharray="0,0,0,87.0102310180664"><animate attributeType="XML" attributeName="stroke-dasharray" repeatCount="1" dur="2.5s" values="0,0,0,87.0102310180664; 
          0,43.5051155090332,43.5051155090332,0; 
          87.0102310180664,0,0,0" keyTimes="0; 0.5; 1" fill="freeze"></animate></path>
<setting>{"type":"direct","speed":20,"random":1,"shift":1,"size":1,"rupture":50}</setting></svg>